<svg xmlns="http://www.w3.org/2000/svg" width="68.781" height="63.875" viewBox="0 0 68.781 63.875">
  <defs>
    <style>
      .cls-1 {
        fill: #c45f4b;
        fill-rule: evenodd;
      }
    </style>
  </defs>
  <path id="icon-group" class="cls-1" d="M141.667,803a16.062,16.062,0,0,1-2.9-9.125,17.428,17.428,0,0,1,.178-2.353,14.351,14.351,0,0,1-4.759.82c-4.83,0-8.551-3.03-9.3-3.03-4.544,0-4.437,9.7-4.437,12.583,0,3.957,3.364,5.667,6.942,5.667h4.8A12.685,12.685,0,0,1,141.667,803h0Zm38.322,22.705c0-8.055-1.9-20.424-12.38-20.424-1.217,0-5.654,4.955-12.81,4.955s-11.594-4.955-12.81-4.955c-10.484,0-12.381,12.369-12.381,20.424,0,5.775,3.829,9.232,9.554,9.232h31.273c5.726,0,9.554-3.457,9.554-9.232h0Zm-36.64-45.518a9.161,9.161,0,1,0-9.161,9.125,9.161,9.161,0,0,0,9.161-9.125h0Zm25.19,13.688a13.74,13.74,0,1,0-13.74,13.687,13.717,13.717,0,0,0,13.74-13.687h0Zm20.6,8.02c0-2.887.107-12.583-4.424-12.583-0.751,0-4.472,3.03-9.3,3.03a14.355,14.355,0,0,1-4.759-.82,17.269,17.269,0,0,1,.179,2.353,16.069,16.069,0,0,1-2.9,9.125,12.685,12.685,0,0,1,9.482,4.562h4.795c3.578,0,6.928-1.71,6.928-5.667h0Zm-4.567-21.708a9.16,9.16,0,1,0-9.16,9.125,9.161,9.161,0,0,0,9.16-9.125h0Z" transform="translate(-120.344 -771.063)"/>
</svg>
