<svg xmlns="http://www.w3.org/2000/svg" width="63.219" height="62.875" viewBox="0 0 63.219 62.875">
  <defs>
    <style>
      .cls-1 {
        fill: #cf9d41;
        fill-rule: evenodd;
      }
    </style>
  </defs>
  <path id="icon-globe" class="cls-1" d="M385.073,772.062a31.088,31.088,0,0,0-31.42,31.055,31.612,31.612,0,1,0,63.223,0c0-17.42-14.2-31.055-31.8-31.055h0Zm11.406,20.959a4.446,4.446,0,0,1,1.775-.084c0.454,0.021.826,0.049,0.289,0.112a3.081,3.081,0,0,1-.908.013,0.779,0.779,0,0,1,.743.875c1.074,0.61-.33,1.342-1.032,1.261,0.33,0.04-.7.651-0.7,0.61a3.464,3.464,0,0,0-1.58.57c-0.285.447,0.107,1.22-.427,1.057-0.213.529-1.031,0.244-1.386,0.814,0.391,0.488-.391,1.338-0.782.569-0.356.163-.178,0.769-0.534,1.119a0.466,0.466,0,0,1-.071.68,3.727,3.727,0,0,1,.605.426,0.481,0.481,0,0,1-.392.382,1.643,1.643,0,0,1-.533,1.489,8.669,8.669,0,0,1-1.69.766c-0.981.723-1.592,1.787,0.109,2.085,0.055,0,.055,1.295.109,1.333,0.109,0.461.382,1.805-.763,1.306a2.805,2.805,0,0,1-1-1.69,2.223,2.223,0,0,0-.525-0.949c-0.406.6-.453,0.17-0.711-0.128a1.317,1.317,0,0,0-1.216-1.061c-0.781.412-1.23,0.3-1.353-.337a2.082,2.082,0,0,0,.123.921c-0.205.861-.572,0.777-0.9,0.194-0.531-.553-1.675.626-2.288,0a5.808,5.808,0,0,1,.327.583c-0.122.5-.406,0.208-0.645,0.373a6.028,6.028,0,0,1-.758.942c0.52,0.96-.04,1.881,0,2.918a3.82,3.82,0,0,0,1.281,2.711,3.462,3.462,0,0,0,1.96.127c0.572-.254.491-0.718,0.7-1.225a1.067,1.067,0,0,1,1.062-.846c1.758-.076.69,1.395,0.2,2.155-0.121.549-.162,1.183-0.244,1.69a4.287,4.287,0,0,0,1.119.042c0-.169.071-0.38,0.071-0.507,0.14,0.422.609,0.549,0.75,0.042a8.623,8.623,0,0,1,.742,1.479c0.087,0.591.71,1.224-.175,1.224-0.45,0,.087.955,0.175,1.125a2.138,2.138,0,0,0,2.562.614c0,0.319-.163,1.322-0.762,1.413a1.51,1.51,0,0,1-1.363-1.345,0.749,0.749,0,0,1-.306.388,7.917,7.917,0,0,1-1.108-1.1c-0.046-.1-0.974-1.6-0.539-1.682a4.11,4.11,0,0,1-2.718-.464c-0.858-.465-0.981-1.69-2.043-1.521a2.3,2.3,0,0,1-1.765.085,15.986,15.986,0,0,1-1.612-.93c-0.644-.38-1.773-0.76-2.014-1.605a10.315,10.315,0,0,0-.524-2.02,2.624,2.624,0,0,0-1.45-1.152c0.442,0-.292-1.151-0.371-1.267-0.292-.5-2.013-1.875-1.65-2.726a2.5,2.5,0,0,0-1.089-.51,5.533,5.533,0,0,0,1.225,2.43,4.128,4.128,0,0,1,1.089,2.38c-0.589.154-.408-0.575-0.589-0.883-0.318-.5-1.181-0.5-1.408-1.036,0.091-.039.136-0.039,0.227-0.077,0.046-.653-1.089-1.2-0.908-1.708-0.635-.468-0.635-1.361-1.089-1.957a5.852,5.852,0,0,0-1.68-1.191c-0.227-.128-1.861-2.085-1.271-2.212-0.908.212-1.357-1.98-1.225-2.468,0,0-.091,0-0.091-0.041,0.181-.488-0.121-3.01.59-3.051-0.5.041-.631-1.251-0.5-1.5a2.23,2.23,0,0,1,.817.72,0.966,0.966,0,0,0,.454-0.825,3.243,3.243,0,0,0-.954-0.437,17.945,17.945,0,0,0-1.817-.563,0.973,0.973,0,0,0-.121-1.056c-0.765.823-.363-0.635-0.765-0.771a1.125,1.125,0,0,1-.483-0.362,22.8,22.8,0,0,1,10.313-9.607,5.522,5.522,0,0,1,.791-0.041,5.018,5.018,0,0,1,1.349,1.055,1.015,1.015,0,0,0-.2-0.73,1.228,1.228,0,0,1,.886-0.488,2.46,2.46,0,0,1,1.209.042,8.2,8.2,0,0,0-.806-0.983,0.726,0.726,0,0,0-.2.186c-0.444-.318-1.29.119-1.679,0.278a6.346,6.346,0,0,1-.61.477,0.4,0.4,0,0,1-.375.042,10.106,10.106,0,0,1,3.305-1.512c0.238,0.132.475,0.364,0.831,0.6-0.237-.165-0.237.716-0.158,0.875h3a6.8,6.8,0,0,0,.816,1.38c0.468-.365-0.209-0.77.1-1.135a6.135,6.135,0,0,1,1.354-.483c0.364-.2-0.261-0.478-0.417-0.557-0.521-.212-2.313-0.311-1.562-1.072a3.242,3.242,0,0,1,2.083.033c0.6,0.245,1.031.655,0.465,1.027,0.316,0.038,1.408.373,1.191,0.858a0.91,0.91,0,0,1,.693-0.559c0.389,0.037.53,0.891,0.919,1.148,0.623,1.055,1.185-1.074,1.279-1-0.422-.261.5-0.6,0.891-0.485,0.5,0.112,1.524,1.021.218,0.969,1.234,0.483,1.27,1.531-.35,1.49-0.571-.041-0.946-0.951-1.251-0.206a3.786,3.786,0,0,1-.885,1.318,2.782,2.782,0,0,1-2.267.492c0.286,0.044-.613,1.033-0.694,1.205a2.475,2.475,0,0,0-.49.989,5.01,5.01,0,0,1-.2,1.333c0.695-.215,1.062,1.118.776,1.161a4.449,4.449,0,0,1,2.37.171c1.043,0.061,1.536.309,1.676,0.934,0.094-.254.62-0.13,0.883-0.047a3.27,3.27,0,0,1,1.281,1.409c0.354,0.7.822,1.814,1.435,1.648,0.108-.08.9-0.663,0.613-0.99a1.818,1.818,0,0,1-.324-1.713c0.288-.537.971-0.683,1.15-1.366,0.287-1.123-.862-0.977-0.862-1.806,0-.382.467-0.483,0.431-0.887,0-.381-0.539-1.2-0.107-1.488a4.124,4.124,0,0,1,2.4.41c0.323,0.246,1.328.574,1.4,0.943H395.24c0.286,0.23.906,0.838,0.037,1,0.383-.081,1.9.5,1.16,0.875a3.4,3.4,0,0,0,.7-0.312c0.289-.25.455-0.644,0.826-0.375,0.083,0.062.537-.918,0.785-0.877a1.243,1.243,0,0,1,.619.877,7.226,7.226,0,0,0,.785,1.14c0.289,0.771.165,1.5,1.114,1.768,0.289,0.091,1.074-.408,1.033.272a0.955,0.955,0,0,0,.247-0.362c0.042,0.634.29,1.36,0.991,1.269a5.584,5.584,0,0,1-.082,1.075,1.588,1.588,0,0,1-1.239.547,1.905,1.905,0,0,0-.991.61,2.77,2.77,0,0,0-2.106-.507,8.776,8.776,0,0,0-2.147.553,3.627,3.627,0,0,1-1.412.378,6.4,6.4,0,0,1-.463.828,3.392,3.392,0,0,1,1.38-.8h0Zm-6.843,37.041a6.591,6.591,0,0,1-.109-0.729c-0.054-.73.872-1.231,0.818-1.915a0.9,0.9,0,0,1-.654-1.185,3.72,3.72,0,0,1,1.44-1.824,2.875,2.875,0,0,0,.484-2.189c-0.178-1.094-.178-2.234-0.353-3.317,0.044,0.263.673,0.171,0.78,0.536a5.07,5.07,0,0,1,.391-0.911,2.735,2.735,0,0,1,.6-0.443c0.356-.2,1.1-0.988,1.529-0.511,0.356,0.409-.533.852-0.071,1.227a2.445,2.445,0,0,1,.284-0.954c0.569-.614,1.27.068,2.154,0.238a3.641,3.641,0,0,1,1.486.75c-0.165-.136.661-0.375,0.744-0.409a1.96,1.96,0,0,1,1.651.6c0.578,0.456,1.487.775,1.4,1.687a5.178,5.178,0,0,1,.991.365,3.537,3.537,0,0,1,1.032.364,26.874,26.874,0,0,1-14.6,8.617h0Z" transform="translate(-353.656 -772.063)"/>
</svg>
