<svg xmlns="http://www.w3.org/2000/svg" width="56.938" height="63.75" viewBox="0 0 56.938 63.75">
  <defs>
    <style>
      .cls-1 {
        fill: #7da3b7;
        fill-rule: evenodd;
      }
    </style>
  </defs>
  <path id="icon-leaf" class="cls-1" d="M872.809,783.355c-0.738-2.959-4.646-13-8.677-11.992-3,.747-3.54,2.667-5.047,4.979-3.793,5.909-20.036,7.007-26.75,11.226-9.314,5.8-16.362,15.971-13.528,27.336a22.131,22.131,0,0,0,1.248,3.637c0.32,0.68,1.72,2.343,1.8,2.664,0.517,2.073-5.823,6.729-4.9,10.446a2.813,2.813,0,0,0,.962,1.431c1.373,1.4,2.327,2.342,4.574,1.782,3.1-.773,3.425-8.6,5.209-9.043,1.426-.355,5.412,1.043,7.266,1.188a32.949,32.949,0,0,0,10.62-.864,36,36,0,0,0,14.659-7.755c8.686-7.4,14.019-16.4,13.53-28.087a35.006,35.006,0,0,0-.97-6.948h0Zm-16.533,11.5a2.371,2.371,0,0,1-1.712,2.856c-8.774,2.188-13.723,5.89-18.727,13.325-1.31,2.035-2.452,4.142-3.808,6.15a2.33,2.33,0,0,1-1.435,1.079,2.37,2.37,0,0,1-2.853-1.718,2.343,2.343,0,0,1,.276-1.777c5.967-11.168,12.781-18.482,25.407-21.63a2.369,2.369,0,0,1,2.852,1.715h0Z" transform="translate(-816.875 -771.281)"/>
</svg>
