<svg xmlns="http://www.w3.org/2000/svg" width="15" height="14" viewBox="0 0 15 14">
  <defs>
    <style>
      .cls-1 {
        fill: #fff;
        fill-rule: evenodd;
      }
    </style>
  </defs>
  <path id="icon-linkedin" class="cls-1" d="M723.725,55.427h-3.042V65h3.042V55.427h0Zm0.214-2.956A1.591,1.591,0,0,0,722.223,51a1.653,1.653,0,1,0-.036,3.3h0.018a1.624,1.624,0,0,0,1.734-1.652V52.471h0ZM735.5,59.443c0-2.823-1.5-4.058-3.548-4.058a2.971,2.971,0,0,0-3.045,1.433l0.021,0.019V55.585h-3.35s0.041,0.809,0,9.345h3.35V59.588a2.269,2.269,0,0,1,.112-0.782,1.829,1.829,0,0,1,1.72-1.159c1.212,0,1.7.879,1.7,2.164V64.93H735.5V59.443h0Z" transform="translate(-720.5 -51)"/>
</svg>
