<svg xmlns="http://www.w3.org/2000/svg" width="15" height="13" viewBox="0 0 15 13">
  <defs>
    <style>
      .cls-1 {
        fill: #fff;
        fill-rule: evenodd;
      }
    </style>
  </defs>
  <path id="icon-twitter" class="cls-1" d="M783.5,53.044a5.829,5.829,0,0,1-1.769.508,3.239,3.239,0,0,0,1.352-1.808,5.823,5.823,0,0,1-1.951.792,2.982,2.982,0,0,0-2.247-1.036,3.181,3.181,0,0,0-3.074,3.281,3.906,3.906,0,0,0,.076.751,8.573,8.573,0,0,1-6.34-3.433,3.419,3.419,0,0,0-.419,1.655,3.341,3.341,0,0,0,1.371,2.732,2.953,2.953,0,0,1-1.39-.416v0.041a3.236,3.236,0,0,0,2.466,3.219,3.058,3.058,0,0,1-.809.112,3.633,3.633,0,0,1-.581-0.051,3.112,3.112,0,0,0,2.875,2.275,6.018,6.018,0,0,1-4.56,1.361,8.3,8.3,0,0,0,4.721,1.472c5.655,0,8.748-5,8.748-9.333,0-.142,0-0.285-0.009-0.427a6.816,6.816,0,0,0,1.54-1.7h0Z" transform="translate(-768.5 -51.5)"/>
</svg>
